/* XPM */
static char * wall_no_xpm[] = {
"32 32 214 2",
"  	c #C7B8A8",
". 	c #D7CBC5",
"+ 	c #D7C8B8",
"@ 	c #B7A797",
"# 	c #785B54",
"$ 	c #684838",
"% 	c #583828",
"& 	c #663A28",
"* 	c #58351B",
"= 	c #562A18",
"- 	c #481A0D",
"; 	c #381708",
"> 	c #2F120A",
", 	c #93918E",
"' 	c #FFFFFE",
") 	c #CCD4CA",
"! 	c #796657",
"~ 	c #7C533C",
"{ 	c #8C634B",
"] 	c #875739",
"^ 	c #774C44",
"/ 	c #663C35",
"( 	c #4F332E",
"_ 	c #8A5D61",
": 	c #ECF4ED",
"< 	c #D9D6C8",
"[ 	c #FEFDF4",
"} 	c #F7E9D8",
"| 	c #987866",
"1 	c #A89787",
"2 	c #988777",
"3 	c #887767",
"4 	c #A78976",
"5 	c #977C74",
"6 	c #5A4638",
"7 	c #7A7568",
"8 	c #CACAC5",
"9 	c #DAD9D4",
"0 	c #988A84",
"a 	c #A88569",
"b 	c #89735A",
"c 	c #A68C84",
"d 	c #B38C87",
"e 	c #B59C94",
"f 	c #6B6457",
"g 	c #514938",
"h 	c #695647",
"i 	c #A9947A",
"j 	c #D6BAA7",
"k 	c #C8B49A",
"l 	c #E7D4BA",
"m 	c #FBF4DB",
"n 	c #FAF7E9",
"o 	c #F6ECE5",
"p 	c #E5CAB8",
"q 	c #D9D3BB",
"r 	c #B9B6A7",
"s 	c #A9A597",
"t 	c #C4ADA4",
"u 	c #F0D7C9",
"v 	c #E7D8C8",
"w 	c #5A432B",
"x 	c #775539",
"y 	c #8C734B",
"z 	c #987559",
"A 	c #B8A48A",
"B 	c #846453",
"C 	c #A87A66",
"D 	c #C59986",
"E 	c #B79679",
"F 	c #C6A68A",
"G 	c #8C6453",
"H 	c #B69A87",
"I 	c #845B44",
"J 	c #9C6344",
"K 	c #AB644B",
"L 	c #B4734C",
"M 	c #A35C3C",
"N 	c #975637",
"O 	c #8B633B",
"P 	c #774A37",
"Q 	c #A46B53",
"R 	c #A46B4C",
"S 	c #A77349",
"T 	c #B8835A",
"U 	c #B78668",
"V 	c #AC745B",
"W 	c #B67A65",
"X 	c #946453",
"Y 	c #AC7A72",
"Z 	c #A87B59",
"` 	c #7B5443",
" .	c #935C4B",
"..	c #A4644B",
"+.	c #BB7453",
"@.	c #BB734C",
"#.	c #BB6C4C",
"$.	c #AC6B44",
"%.	c #B36C4B",
"&.	c #8C5B44",
"*.	c #945B3C",
"=.	c #9B5B3C",
"-.	c #A46443",
";.	c #AB6C53",
">.	c #A76756",
",.	c #B3745B",
"'.	c #AC7354",
").	c #CE8E70",
"!.	c #B87A58",
"~.	c #874D44",
"{.	c #B36C53",
"].	c #B66549",
"^.	c #C36B48",
"/.	c #C57956",
"(.	c #B76B55",
"_.	c #775848",
":.	c #C9C6B8",
"<.	c #886A58",
"[.	c #77472A",
"}.	c #AC6B4C",
"|.	c #AE5D4B",
"1.	c #A8643B",
"2.	c #B1B195",
"3.	c #A36C5B",
"4.	c #9B5C43",
"5.	c #8B543C",
"6.	c #985847",
"7.	c #A75C47",
"8.	c #897A75",
"9.	c #4A3628",
"0.	c #A4735B",
"a.	c #9C6B4C",
"b.	c #9B6453",
"c.	c #865747",
"d.	c #583B35",
"e.	c #77522C",
"f.	c #864B37",
"g.	c #946B53",
"h.	c #A66D64",
"i.	c #9B6C5B",
"j.	c #68442A",
"k.	c #492B25",
"l.	c #9A9587",
"m.	c #69533B",
"n.	c #3A2C27",
"o.	c #6A5954",
"p.	c #876B64",
"q.	c #C7BBB5",
"r.	c #D4B9B2",
"s.	c #C6AA97",
"t.	c #D7C3AB",
"u.	c #E9E3CB",
"v.	c #B9B8B4",
"w.	c #B8AAA5",
"x.	c #E9E9E5",
"y.	c #876548",
"z.	c #98846A",
"A.	c #AAA38B",
"B.	c #E8E6D8",
"C.	c #E6DBD5",
"D.	c #88542C",
"E.	c #928C74",
"F.	c #6B3419",
"G.	c #99623C",
"H.	c #976A48",
"I.	c #946344",
"J.	c #9B644B",
"K.	c #C47B64",
"L.	c #945C43",
"M.	c #B97547",
"N.	c #97552C",
"O.	c #A46A44",
"P.	c #965D54",
"Q.	c #F7E4CA",
"R.	c #C78767",
"S.	c #C5764A",
"T.	c #AB6444",
"U.	c #8B5C4B",
"V.	c #713930",
"W.	c #A37463",
"X.	c #95685B",
"Y.	c #694D53",
"Z.	c #684B45",
"`.	c #875C54",
" +	c #B78976",
".+	c #D5B69A",
"++	c #A7936C",
"@+	c #D2AC90",
"#+	c #E3CCA4",
"$+	c #7A634A",
"%+	c #99734B",
"&+	c #AC8359",
"*+	c #94634B",
"=+	c #AC724C",
"-+	c #C69679",
";+	c #B2936B",
">+	c #D18754",
",+	c #B36443",
"'+	c #B46B44",
")+	c #A47354",
"!+	c #C78459",
"~+	c #9C6B54",
"{+	c #736D53",
"]+	c #8A8577",
"^+	c #ABACA6",
"/+	c #575249",
"(+	c #5A4945",
"_+	c #392516",
":+	c #B37353",
"<+	c #86482A",
"[+	c #863C25",
"}+	c #B5673B",
"|+	c #BB6C44",
"1+	c #CA7352",
"  . + @ # $ % & * * = - = - - = ; > , ' ) ! ~ { ] & & ^ / ( ^ _ ",
": < ' [ } @ | 1 @ @ 2 ! ! 3 4 5 6 7 8 ) 9 0 a | b b | c c d e d ",
"f g h i j k k l m n n n [ o } } p q < r s t + + l u } } o n o v ",
"6 w x ] ] ] ] y z z | A [ v B C D E F 4 G a 2 4 4 H A i i a H i ",
"$ I J K L M N O ] ] P B v k ~ Q R S T U V W X z Y 4 | z U Z U Z ",
"`  ...+.@.#.$.$.%...&.b q k ] *.=.-.-.;.V V ;.>.,.U U '.T ).!...",
"6 ~.{.#.].^.#.%./.(.~._.:.v <.[.,.!.%.{.V ;./.%.K }.!.!./.+.{.|.",
"! ~ W %.%.%.1.-.}...~./ 2.} 2 ~ 3.'.}.}.;.Q ;.4.*.5.*...{.6.7.,.",
"8.9.` 0.a.a.S a.Q >.b.c.@ [ @ d.^ [.e.f.P P ` I I I g.h.h.i.i.i.",
") 2 <.<.g.$ j.x ` k.> d.< ' < l.5 ! m.% k.k.n.6 o.h h # # ! p.! ",
"q.v r.r.u s.H j t.t e . } q u.n n [ [ [ : : : : : 9 v.w.q.9 x.[ ",
"_.y.y.<.p.3 z.z.| i @ t 1 b A.q + < B.C.< x.' ' ' ' ' ' B.C.. :.",
"I D.N J g.g.I y.y.P $ $ ~ ` x _.$ % % w h E.. 1 3 | a 2 | | z.z.",
"& P ] =.}.'.Q a.J a.Q J 6.6.5.P [.F.F.F.j.b A m.* e.] G.G.H.H.I.",
"J.&.*.-.$.,.,.'.;.'.'.;.;.(.K...R J.4.L.&.4 t.z I.!.M.L $.$.1.N.",
"..=.=.O.;.;.4.4.>.;.4.4.R {.+.;.R P.>.P.~.4 Q.D U R.S.S.@.%.T.1.",
"U.V.f.Q W.3.3.X.3.Y 3. .R ..=...J. .h. ./ 2 [ H ] '.R.!.!./.R.R.",
"Y.Z.( `.5 Y 4  + +d d Y  +C  .P.i.i.>.i.Z.3 q @ w P c.g.g.H.,.'.",
"5 w.0 o.Z.h % $ <.b <.<.c.P P ` U.{ i.c._.i B.B.t c 4 H 4 | z ] ",
"n [ [ l t.l t.l j @ A H 4 z z.b b A .+a i @ :.w.r   r.+ r.j s.4 ",
"i i ++E @+.+#+l k F k s.E E F k F A i E a b $+! ! ! <.3 b b z g.",
"%+%+&+S O.] O y.%+a E E E E E @+E E F E C *+] ] ~ ] j.j.j.j.F.F.",
"'.S L /.S.+.=+S U U -+-+;+E F F ;+;+E ;+U W L L $.L O.R R O.G.D.",
";.R $.S./././.T U U -+D E E E E ;+a ;+;+ +R.>+/.M.M.L /.}.L M.1.",
"b.Q '.%.,+'+1.] D.)+D ;+a E E H A E A E  +W !+R.!.$.+.W ,.{.$.-.",
"4 4 ~+..-.1.N.e.e.y a z.4 A A s.A i A.i i 4 W  +-+U W W W h.3.Q ",
"# h h B y.] x {+2 z.]+]+E.i ]+]+E.]+l.w.@ c 2 2 @ @ 0 p.5 c 5 `.",
"^+l.1 2 3 $+m.m.h /+/+g n.g f ! h g ( (+6 o.! h (+d._+( d.Y.Z.d.",
"' [ } l l l #+.+i s.} m l j p v t.j j t..+.+t.j j p r.r.+ t + m ",
"' @ { 0. +U U %+O *.a.Z Z Z 0.3.C C U -+-+R.U U  +-+ +H p j .+t.",
"[ | N J O.=.1.G.1.1.=.$.T.:+K <+[+=.$.$.}+'+$.L L -.=.] ] f.L.&.",
"C.| M 1.,+,+'+S.S.}+}+^.,+|+1++.(.@.#.S.S.S.S.S.|+|+|+].+.(.(.K."};
